<?xml version="1.0" standalone="no"?>
<!DOCTYPE svg PUBLIC "-//W3C//DTD SVG 20010904//EN"
 "http://www.w3.org/TR/2001/REC-SVG-20010904/DTD/svg10.dtd">
<svg version="1.0" xmlns="http://www.w3.org/2000/svg"
 width="200.000000pt" height="200.000000pt" viewBox="0 0 200.000000 200.000000"
 preserveAspectRatio="xMidYMid meet">

<g transform="translate(0.000000,200.000000) scale(0.100000,-0.100000)"
fill="#000000" stroke="none">
<path d="M133 1993 c-13 -2 -32 -16 -43 -30 -20 -25 -20 -38 -20 -915 0 -602
3 -896 11 -909 22 -41 121 -128 152 -134 18 -3 395 -5 839 -3 l807 3 23 23 23
23 3 887 c1 488 0 898 -3 910 -8 33 -93 122 -132 138 -26 12 -179 14 -835 13
-442 -1 -813 -4 -825 -6z m1634 -39 c16 -4 26 -18 33 -45 7 -25 10 -327 8
-894 -3 -835 -3 -857 -22 -871 -17 -12 -146 -14 -830 -14 -739 0 -811 1 -828
17 -17 15 -18 56 -18 893 0 911 -1 899 40 913 21 7 1590 8 1617 1z m107 -100
c14 -14 16 -109 16 -893 0 -742 -2 -880 -14 -897 -14 -19 -34 -19 -836 -19
-719 0 -822 2 -830 15 -5 8 -10 18 -10 23 0 4 357 7 793 7 881 0 827 -4 847
68 6 24 10 329 10 875 0 460 2 837 4 837 3 0 12 -7 20 -16z"/>
<path d="M157 1923 c-4 -3 -7 -66 -7 -138 l0 -132 38 -52 c45 -62 70 -71 208
-71 122 0 134 8 134 89 l0 53 41 -61 c48 -73 70 -81 212 -81 134 0 137 4 137
149 0 154 -2 156 -152 155 l-113 0 -38 48 c-56 72 -83 57 -86 -46 -1 -37 -2
-38 -19 -23 -23 21 -142 32 -199 19 -40 -9 -43 -8 -59 17 -39 62 -79 92 -97
74z m81 -197 c6 -117 2 -130 -26 -85 -19 31 -22 51 -22 129 l0 93 22 -28 c17
-22 23 -45 26 -109z m382 -16 l0 -95 -20 25 c-16 21 -20 41 -20 125 l0 100 20
-30 c16 -25 20 -47 20 -125z m-135 -30 l0 -105 -90 -3 c-110 -3 -115 1 -115
102 0 121 -3 117 109 114 l96 -3 0 -105z m390 0 l0 -105 -94 -3 c-69 -2 -97 1
-103 10 -9 15 -11 169 -2 193 5 13 22 15 103 13 l96 -3 0 -105z"/>
<path d="M1100 1816 c0 -20 5 -26 21 -26 15 0 20 5 17 22 -5 34 -38 37 -38 4z"/>
<path d="M1187 1833 c-4 -3 -7 -15 -7 -25 0 -23 35 -24 44 -1 9 22 -21 43 -37
26z"/>
<path d="M1487 1834 c-4 -4 -7 -16 -7 -26 0 -14 6 -19 23 -16 14 2 22 10 22
23 0 20 -25 32 -38 19z"/>
<path d="M1570 1816 c0 -20 5 -26 21 -26 15 0 20 5 17 22 -5 34 -38 37 -38 4z"/>
<path d="M1025 1810 c-16 -18 -17 -23 -5 -30 8 -6 19 -10 23 -10 13 0 19 28
10 45 -8 14 -11 13 -28 -5z"/>
<path d="M1403 1804 c-3 -9 0 -20 8 -25 23 -14 29 -11 29 16 0 28 -27 35 -37
9z"/>
<path d="M1262 1798 c-20 -20 -14 -38 14 -38 20 0 25 4 20 16 -3 9 -6 20 -6
25 0 13 -14 11 -28 -3z"/>
<path d="M1652 1798 c-18 -18 -14 -38 8 -38 13 0 20 7 20 19 0 25 -13 34 -28
19z"/>
<path d="M1010 1710 c0 -13 7 -20 20 -20 13 0 20 7 20 20 0 13 -7 20 -20 20
-13 0 -20 -7 -20 -20z"/>
<path d="M1390 1710 c0 -13 7 -20 20 -20 13 0 20 7 20 20 0 13 -7 20 -20 20
-13 0 -20 -7 -20 -20z"/>
<path d="M1260 1696 c0 -20 5 -26 21 -26 15 0 20 5 17 22 -5 34 -38 37 -38 4z"/>
<path d="M1647 1713 c-15 -15 -7 -43 13 -43 15 0 20 7 20 25 0 24 -18 34 -33
18z"/>
<path d="M1010 1625 c0 -27 1 -28 24 -19 24 9 20 44 -4 44 -15 0 -20 -7 -20
-25z"/>
<path d="M1390 1624 c0 -33 33 -30 38 4 3 17 -2 22 -17 22 -16 0 -21 -6 -21
-26z"/>
<path d="M1253 1614 c-6 -17 14 -36 32 -31 6 2 11 13 13 25 3 17 -2 22 -18 22
-11 0 -23 -7 -27 -16z"/>
<path d="M1640 1610 c0 -11 2 -20 4 -20 2 0 11 -3 20 -6 12 -5 16 0 16 20 0
19 -5 26 -20 26 -13 0 -20 -7 -20 -20z"/>
<path d="M1040 1565 c-15 -18 -5 -35 21 -35 12 0 19 7 19 19 0 24 -25 34 -40
16z"/>
<path d="M1120 1550 c0 -13 7 -20 20 -20 13 0 20 7 20 20 0 13 -7 20 -20 20
-13 0 -20 -7 -20 -20z"/>
<path d="M1210 1551 c0 -15 6 -21 21 -21 14 0 19 5 17 17 -5 26 -38 29 -38 4z"/>
<path d="M1420 1560 c-13 -9 -13 -11 0 -20 24 -16 40 -12 40 10 0 22 -16 26
-40 10z"/>
<path d="M1510 1550 c0 -13 7 -20 20 -20 13 0 20 7 20 20 0 13 -7 20 -20 20
-13 0 -20 -7 -20 -20z"/>
<path d="M1590 1550 c0 -15 7 -20 26 -20 20 0 25 4 20 16 -3 9 -6 18 -6 20 0
2 -9 4 -20 4 -13 0 -20 -7 -20 -20z"/>
<path d="M932 1501 c-7 -4 -15 -35 -18 -69 -4 -34 -11 -59 -16 -56 -14 9 -38
-16 -31 -32 3 -8 14 -14 24 -14 12 0 19 -7 19 -20 0 -13 -7 -20 -20 -20 -14 0
-20 -7 -20 -21 0 -17 5 -20 25 -17 19 4 25 1 25 -12 0 -10 17 -40 38 -67 49
-61 96 -76 222 -72 119 5 120 7 120 154 0 153 3 150 -149 150 -67 0 -121 3
-121 6 0 9 -60 83 -74 91 -6 4 -17 3 -24 -1z m72 -159 c3 -25 6 -70 6 -101
l-1 -56 -24 28 c-23 26 -25 36 -25 125 0 97 1 97 19 73 10 -14 22 -45 25 -69z
m240 22 c13 -5 16 -24 16 -109 0 -119 4 -115 -101 -115 -106 0 -109 3 -109
113 0 59 4 97 12 105 13 13 153 17 182 6z"/>
<path d="M330 1390 c0 -15 7 -20 25 -20 18 0 25 5 25 20 0 15 -7 20 -25 20
-18 0 -25 -5 -25 -20z"/>
<path d="M420 1390 c0 -13 7 -20 20 -20 13 0 20 7 20 20 0 13 -7 20 -20 20
-13 0 -20 -7 -20 -20z"/>
<path d="M710 1390 c0 -13 7 -20 20 -20 13 0 20 7 20 20 0 13 -7 20 -20 20
-13 0 -20 -7 -20 -20z"/>
<path d="M800 1390 c0 -13 7 -20 20 -20 13 0 20 7 20 20 0 13 -7 20 -20 20
-13 0 -20 -7 -20 -20z"/>
<path d="M1480 1391 c0 -16 6 -21 26 -21 33 0 30 33 -4 38 -17 3 -22 -2 -22
-17z"/>
<path d="M1570 1390 c0 -13 7 -20 20 -20 13 0 20 7 20 20 0 13 -7 20 -20 20
-13 0 -20 -7 -20 -20z"/>
<path d="M262 1388 c-18 -18 -15 -38 6 -38 25 0 31 7 25 31 -6 22 -14 24 -31
7z"/>
<path d="M642 1388 c-18 -18 -14 -38 8 -38 13 0 20 7 20 19 0 25 -13 34 -28
19z"/>
<path d="M1412 1388 c-18 -18 -15 -38 6 -38 25 0 31 7 25 31 -6 22 -14 24 -31
7z"/>
<path d="M497 1374 c-16 -16 -7 -44 14 -44 15 0 20 5 17 22 -3 22 -19 33 -31
22z"/>
<path d="M1647 1374 c-16 -16 -7 -44 14 -44 15 0 20 5 17 22 -3 22 -19 33 -31
22z"/>
<path d="M242 1288 c5 -34 38 -37 38 -4 0 20 -5 26 -21 26 -15 0 -20 -5 -17
-22z"/>
<path d="M620 1285 c0 -18 5 -25 20 -25 15 0 20 7 20 25 0 18 -5 25 -20 25
-15 0 -20 -7 -20 -25z"/>
<path d="M1392 1288 c5 -34 38 -37 38 -4 0 20 -5 26 -21 26 -15 0 -20 -5 -17
-22z"/>
<path d="M490 1270 c0 -13 7 -20 20 -20 13 0 20 7 20 20 0 13 -7 20 -20 20
-13 0 -20 -7 -20 -20z"/>
<path d="M1640 1270 c0 -13 7 -20 20 -20 13 0 20 7 20 20 0 13 -7 20 -20 20
-13 0 -20 -7 -20 -20z"/>
<path d="M240 1200 c0 -13 7 -20 20 -20 13 0 20 7 20 20 0 13 -7 20 -20 20
-13 0 -20 -7 -20 -20z"/>
<path d="M620 1200 c0 -13 7 -20 20 -20 13 0 20 7 20 20 0 13 -7 20 -20 20
-13 0 -20 -7 -20 -20z"/>
<path d="M1390 1200 c0 -13 7 -20 20 -20 13 0 20 7 20 20 0 13 -7 20 -20 20
-13 0 -20 -7 -20 -20z"/>
<path d="M490 1180 c0 -13 7 -20 20 -20 13 0 20 7 20 20 0 13 -7 20 -20 20
-13 0 -20 -7 -20 -20z"/>
<path d="M870 1180 c0 -13 7 -20 20 -20 13 0 20 7 20 20 0 13 -7 20 -20 20
-13 0 -20 -7 -20 -20z"/>
<path d="M1640 1180 c0 -13 7 -20 20 -20 13 0 20 7 20 20 0 13 -7 20 -20 20
-13 0 -20 -7 -20 -20z"/>
<path d="M271 1136 c-10 -12 -8 -17 9 -26 25 -13 27 -12 32 15 4 24 -24 32
-41 11z"/>
<path d="M453 1143 c-21 -8 -16 -43 6 -43 24 0 33 13 25 34 -6 17 -11 18 -31
9z"/>
<path d="M651 1136 c-10 -12 -8 -17 8 -25 28 -15 31 -14 31 14 0 28 -21 33
-39 11z"/>
<path d="M833 1143 c-21 -8 -15 -43 6 -43 11 0 22 4 25 9 8 12 -17 39 -31 34z"/>
<path d="M1421 1136 c-10 -12 -8 -17 8 -25 28 -15 31 -14 31 14 0 28 -21 33
-39 11z"/>
<path d="M1603 1143 c-20 -8 -16 -43 5 -43 25 0 31 7 25 31 -5 20 -9 21 -30
12z"/>
<path d="M360 1120 c0 -13 7 -20 20 -20 13 0 20 7 20 20 0 13 -7 20 -20 20
-13 0 -20 -7 -20 -20z"/>
<path d="M732 1123 c2 -10 13 -19 26 -21 17 -3 22 2 22 17 0 16 -6 21 -26 21
-19 0 -25 -5 -22 -17z"/>
<path d="M1510 1120 c0 -13 7 -20 20 -20 13 0 20 7 20 20 0 13 -7 20 -20 20
-13 0 -20 -7 -20 -20z"/>
<path d="M157 1073 c-4 -3 -7 -65 -7 -137 l0 -131 36 -52 c44 -64 69 -73 210
-73 134 0 134 0 134 152 0 151 1 150 -149 147 l-111 -1 -40 51 c-38 48 -58 60
-73 44z m81 -197 c2 -45 2 -91 0 -101 -4 -17 -7 -15 -26 15 -19 30 -22 50 -22
129 l0 94 22 -28 c17 -22 23 -45 26 -109z m247 -46 l0 -105 -96 -3 c-112 -3
-109 -6 -109 108 0 114 -3 111 109 108 l96 -3 0 -105z"/>
<path d="M916 1064 c-3 -9 -6 -39 -6 -66 0 -28 -3 -48 -7 -45 -9 9 -33 -12
-33 -29 0 -8 9 -14 20 -14 15 0 20 -7 20 -25 0 -18 -5 -25 -20 -25 -26 0 -26
-30 0 -37 11 -3 30 -24 44 -47 49 -83 64 -90 187 -94 60 -3 120 -1 133 2 32 8
46 51 46 146 0 92 -14 138 -43 145 -12 3 -67 5 -122 3 l-100 -3 -34 45 c-48
64 -73 76 -85 44z m63 -88 c17 -27 21 -50 21 -126 l0 -93 -22 29 c-20 24 -24
43 -26 126 -2 54 -2 98 1 98 3 0 15 -15 26 -34z m275 -67 c8 -40 8 -118 0
-158 l-7 -32 -96 3 -96 3 -3 94 c-1 52 -1 100 2 108 4 9 31 13 99 13 l95 0 6
-31z"/>
<path d="M720 960 c0 -13 7 -20 20 -20 13 0 20 7 20 20 0 13 -7 20 -20 20 -13
0 -20 -7 -20 -20z"/>
<path d="M800 960 c0 -13 7 -20 19 -20 10 0 21 9 24 20 4 16 0 20 -19 20 -17
0 -24 -6 -24 -20z"/>
<path d="M1480 959 c0 -15 5 -20 22 -17 34 5 37 38 4 38 -20 0 -26 -5 -26 -21z"/>
<path d="M1570 960 c0 -13 7 -20 20 -20 13 0 20 7 20 20 0 13 -7 20 -20 20
-13 0 -20 -7 -20 -20z"/>
<path d="M639 954 c-10 -13 -10 -17 2 -25 27 -17 44 -4 33 25 -8 20 -18 20
-35 0z"/>
<path d="M1404 955 c-7 -18 3 -35 22 -35 8 0 14 10 14 25 0 27 -27 35 -36 10z"/>
<path d="M1652 948 c-18 -18 -14 -38 8 -38 13 0 20 7 20 19 0 25 -13 34 -28
19z"/>
<path d="M620 860 c0 -15 7 -20 25 -20 18 0 25 5 25 20 0 15 -7 20 -25 20 -18
0 -25 -5 -25 -20z"/>
<path d="M1390 860 c0 -13 7 -20 20 -20 13 0 20 7 20 20 0 13 -7 20 -20 20
-13 0 -20 -7 -20 -20z"/>
<path d="M1640 840 c0 -13 7 -20 20 -20 13 0 20 7 20 20 0 13 -7 20 -20 20
-13 0 -20 -7 -20 -20z"/>
<path d="M626 791 c-10 -16 5 -42 23 -39 21 4 21 42 -1 46 -9 2 -19 -1 -22 -7z"/>
<path d="M1390 775 c0 -18 5 -25 20 -25 15 0 20 7 20 25 0 18 -5 25 -20 25
-15 0 -20 -7 -20 -25z"/>
<path d="M873 764 c-6 -17 14 -36 32 -31 6 2 11 13 13 25 3 17 -2 22 -18 22
-11 0 -23 -7 -27 -16z"/>
<path d="M1642 758 c5 -34 38 -37 38 -4 0 20 -5 26 -21 26 -15 0 -20 -5 -17
-22z"/>
<path d="M655 710 c-9 -15 4 -30 26 -30 12 0 19 7 19 20 0 21 -33 29 -45 10z"/>
<path d="M740 700 c0 -13 7 -20 20 -20 13 0 20 7 20 20 0 13 -7 20 -20 20 -13
0 -20 -7 -20 -20z"/>
<path d="M830 701 c0 -15 6 -21 21 -21 25 0 22 33 -4 38 -12 2 -17 -3 -17 -17z"/>
<path d="M1420 710 c-13 -9 -13 -11 0 -20 24 -16 40 -12 40 10 0 22 -16 26
-40 10z"/>
<path d="M1510 700 c0 -13 7 -20 20 -20 13 0 20 7 20 20 0 13 -7 20 -20 20
-13 0 -20 -7 -20 -20z"/>
<path d="M1590 700 c0 -15 7 -20 26 -20 20 0 25 4 20 16 -3 9 -6 18 -6 20 0 2
-9 4 -20 4 -13 0 -20 -7 -20 -20z"/>
<path d="M526 619 c-3 -17 -6 -44 -6 -59 0 -16 -7 -30 -15 -34 -8 -3 -15 -15
-15 -26 0 -11 7 -20 15 -20 8 0 15 -9 15 -20 0 -11 -7 -20 -15 -20 -8 0 -15
-9 -15 -20 0 -11 7 -20 15 -20 8 0 20 -10 26 -22 6 -13 26 -41 44 -63 43 -53
95 -68 215 -64 106 5 120 15 120 87 l0 45 38 -53 c47 -65 84 -80 208 -80 110
0 132 12 141 77 l5 42 38 -47 c47 -60 94 -75 220 -71 119 5 120 6 120 155 0
153 -8 160 -174 152 l-92 -5 -33 49 c-25 36 -40 48 -55 46 -18 -3 -21 -11 -24
-67 -3 -63 -3 -63 -24 -45 -17 16 -38 19 -134 20 l-114 1 -36 47 c-26 35 -42
46 -57 44 -20 -3 -22 -10 -25 -65 l-3 -63 -29 21 c-25 19 -38 21 -134 17 -58
-2 -106 -1 -106 2 0 4 -16 25 -36 48 -43 51 -69 54 -78 11z m84 -186 l0 -98
-20 30 c-16 25 -20 47 -20 124 l0 94 20 -26 c17 -21 20 -40 20 -124z m388 6
c3 -77 1 -100 -8 -94 -25 15 -40 76 -40 157 l0 82 23 -22 c19 -20 22 -35 25
-123z m386 62 c8 -52 7 -161 -2 -161 -4 0 -15 13 -25 29 -13 22 -17 52 -17
123 l0 93 19 -24 c11 -14 22 -41 25 -60z m-533 9 c17 -9 19 -22 19 -103 0 -59
-4 -97 -12 -105 -16 -16 -170 -16 -186 0 -8 8 -12 46 -12 105 0 77 3 94 18
102 22 14 148 14 173 1z m389 0 c11 -7 15 -30 15 -97 0 -125 1 -123 -94 -123
-116 0 -111 -5 -111 115 0 73 4 105 13 108 22 9 162 7 177 -3z m384 4 c24 -9
24 -209 0 -218 -29 -11 -169 -7 -182 6 -8 8 -12 45 -12 99 0 112 6 119 105
119 40 0 80 -3 89 -6z"/>
<path d="M330 540 c0 -15 7 -20 25 -20 18 0 25 5 25 20 0 15 -7 20 -25 20 -18
0 -25 -5 -25 -20z"/>
<path d="M420 540 c0 -13 7 -20 20 -20 13 0 20 7 20 20 0 13 -7 20 -20 20 -13
0 -20 -7 -20 -20z"/>
<path d="M262 538 c-18 -18 -15 -38 6 -38 25 0 31 7 25 31 -6 22 -14 24 -31 7z"/>
<path d="M242 438 c5 -34 38 -37 38 -4 0 20 -5 26 -21 26 -15 0 -20 -5 -17
-22z"/>
<path d="M240 350 c0 -13 7 -20 20 -20 13 0 20 7 20 20 0 13 -7 20 -20 20 -13
0 -20 -7 -20 -20z"/>
<path d="M490 330 c0 -13 7 -20 20 -20 13 0 20 7 20 20 0 13 -7 20 -20 20 -13
0 -20 -7 -20 -20z"/>
<path d="M271 286 c-10 -12 -8 -17 9 -26 25 -13 27 -12 32 15 4 24 -24 32 -41
11z"/>
<path d="M458 292 c-10 -2 -18 -12 -18 -23 0 -14 7 -19 25 -19 25 0 32 15 17
35 -4 6 -15 9 -24 7z"/>
<path d="M360 270 c0 -13 7 -20 20 -20 13 0 20 7 20 20 0 13 -7 20 -20 20 -13
0 -20 -7 -20 -20z"/>
</g>
</svg>
